<svg width="197" height="315" viewBox="0 0 197 315" fill="none" xmlns="http://www.w3.org/2000/svg">
<mask id="mask0_1280_39735" style="mask-type:luminance" maskUnits="userSpaceOnUse" x="-118" y="0" width="315" height="315">
<path d="M-118 157.184C-118 70.3761 -47.6089 0.00012207 39.2177 0.00012207C126.044 0.00012207 196.435 70.3761 196.435 157.184C196.435 243.992 126.044 314.368 39.2177 314.368C-47.6089 314.368 -118 243.992 -118 157.184Z" fill="white"/>
</mask>
<g mask="url(#mask0_1280_39735)">
<path d="M25.082 283.428C25.082 280.845 22.9871 278.75 20.4022 278.75C17.8172 278.75 15.7223 280.845 15.7223 283.428C15.7223 286.014 17.8172 288.107 20.4022 288.107C22.9871 288.107 25.082 286.014 25.082 283.428Z" fill="#DBE7F7"/>
<path d="M57.4141 283.428C57.4141 280.845 55.3191 278.75 52.7342 278.75C50.1502 278.75 48.0543 280.845 48.0543 283.428C48.0543 286.013 50.1502 288.107 52.7342 288.107C55.3191 288.107 57.4141 286.013 57.4141 283.428Z" fill="#DBE7F7"/>
<path d="M89.7461 283.428C89.7461 280.845 87.6511 278.75 85.0662 278.75C82.4823 278.75 80.3863 280.845 80.3863 283.428C80.3863 286.013 82.4823 288.107 85.0662 288.107C87.6511 288.107 89.7461 286.013 89.7461 283.428Z" fill="#DBE7F7"/>
<path d="M122.074 283.428C122.074 280.845 119.979 278.75 117.394 278.75C114.809 278.75 112.714 280.845 112.714 283.428C112.714 286.014 114.809 288.107 117.394 288.107C119.979 288.107 122.074 286.014 122.074 283.428Z" fill="#DBE7F7"/>
<path d="M154.414 283.428C154.414 280.845 152.319 278.75 149.734 278.75C147.15 278.75 145.054 280.845 145.054 283.428C145.054 286.013 147.15 288.107 149.734 288.107C152.319 288.107 154.414 286.013 154.414 283.428Z" fill="#DBE7F7"/>
<path d="M186.746 283.428C186.746 280.845 184.651 278.75 182.066 278.75C179.482 278.75 177.386 280.845 177.386 283.428C177.386 286.013 179.482 288.107 182.066 288.107C184.651 288.107 186.746 286.013 186.746 283.428Z" fill="#DBE7F7"/>
<path d="M25.082 253.651C25.082 251.067 22.9871 248.973 20.4022 248.973C17.8172 248.973 15.7223 251.067 15.7223 253.651C15.7223 256.234 17.8172 258.329 20.4022 258.329C22.9871 258.329 25.082 256.234 25.082 253.651Z" fill="#DBE7F7"/>
<path d="M57.4141 253.651C57.4141 251.066 55.3191 248.972 52.7342 248.972C50.1502 248.972 48.0543 251.066 48.0543 253.651C48.0543 256.234 50.1502 258.329 52.7342 258.329C55.3191 258.329 57.4141 256.234 57.4141 253.651Z" fill="#DBE7F7"/>
<path d="M89.7461 253.651C89.7461 251.066 87.6511 248.972 85.0662 248.972C82.4823 248.972 80.3863 251.066 80.3863 253.651C80.3863 256.234 82.4823 258.329 85.0662 258.329C87.6511 258.329 89.7461 256.234 89.7461 253.651Z" fill="#DBE7F7"/>
<path d="M122.074 253.651C122.074 251.067 119.979 248.973 117.394 248.973C114.809 248.973 112.714 251.067 112.714 253.651C112.714 256.234 114.809 258.329 117.394 258.329C119.979 258.329 122.074 256.234 122.074 253.651Z" fill="#DBE7F7"/>
<path d="M154.414 253.651C154.414 251.066 152.319 248.972 149.734 248.972C147.15 248.972 145.054 251.066 145.054 253.651C145.054 256.234 147.15 258.329 149.734 258.329C152.319 258.329 154.414 256.234 154.414 253.651Z" fill="#DBE7F7"/>
<path d="M186.746 253.651C186.746 251.066 184.651 248.972 182.066 248.972C179.482 248.972 177.386 251.066 177.386 253.651C177.386 256.234 179.482 258.329 182.066 258.329C184.651 258.329 186.746 256.234 186.746 253.651Z" fill="#DBE7F7"/>
<path d="M25.082 223.882C25.082 221.299 22.9871 219.204 20.4022 219.204C17.8172 219.204 15.7223 221.299 15.7223 223.882C15.7223 226.467 17.8172 228.561 20.4022 228.561C22.9871 228.561 25.082 226.467 25.082 223.882Z" fill="#DBE7F7"/>
<path d="M57.4141 223.882C57.4141 221.299 55.3191 219.203 52.7342 219.203C50.1502 219.203 48.0543 221.299 48.0543 223.882C48.0543 226.466 50.1502 228.561 52.7342 228.561C55.3191 228.561 57.4141 226.466 57.4141 223.882Z" fill="#DBE7F7"/>
<path d="M89.7461 223.882C89.7461 221.299 87.6511 219.203 85.0662 219.203C82.4823 219.203 80.3863 221.299 80.3863 223.882C80.3863 226.466 82.4823 228.561 85.0662 228.561C87.6511 228.561 89.7461 226.466 89.7461 223.882Z" fill="#DBE7F7"/>
<path d="M122.074 223.882C122.074 221.299 119.979 219.204 117.394 219.204C114.809 219.204 112.714 221.299 112.714 223.882C112.714 226.467 114.809 228.561 117.394 228.561C119.979 228.561 122.074 226.467 122.074 223.882Z" fill="#DBE7F7"/>
<path d="M154.414 223.882C154.414 221.299 152.319 219.203 149.734 219.203C147.15 219.203 145.054 221.299 145.054 223.882C145.054 226.466 147.15 228.561 149.734 228.561C152.319 228.561 154.414 226.466 154.414 223.882Z" fill="#DBE7F7"/>
<path d="M186.746 223.882C186.746 221.299 184.651 219.203 182.066 219.203C179.482 219.203 177.386 221.299 177.386 223.882C177.386 226.466 179.482 228.561 182.066 228.561C184.651 228.561 186.746 226.466 186.746 223.882Z" fill="#DBE7F7"/>
<path d="M25.082 194.104C25.082 191.52 22.9871 189.426 20.4022 189.426C17.8172 189.426 15.7223 191.52 15.7223 194.104C15.7223 196.687 17.8172 198.783 20.4022 198.783C22.9871 198.783 25.082 196.687 25.082 194.104Z" fill="#DBE7F7"/>
<path d="M57.4141 194.104C57.4141 191.519 55.3191 189.425 52.7342 189.425C50.1502 189.425 48.0543 191.519 48.0543 194.104C48.0543 196.687 50.1502 198.783 52.7342 198.783C55.3191 198.783 57.4141 196.687 57.4141 194.104Z" fill="#DBE7F7"/>
<path d="M89.7461 194.104C89.7461 191.519 87.6511 189.425 85.0662 189.425C82.4823 189.425 80.3863 191.519 80.3863 194.104C80.3863 196.687 82.4823 198.783 85.0662 198.783C87.6511 198.783 89.7461 196.687 89.7461 194.104Z" fill="#DBE7F7"/>
<path d="M122.074 194.104C122.074 191.52 119.979 189.426 117.394 189.426C114.809 189.426 112.714 191.52 112.714 194.104C112.714 196.687 114.809 198.783 117.394 198.783C119.979 198.783 122.074 196.687 122.074 194.104Z" fill="#DBE7F7"/>
<path d="M154.414 194.104C154.414 191.519 152.319 189.425 149.734 189.425C147.15 189.425 145.054 191.519 145.054 194.104C145.054 196.687 147.15 198.783 149.734 198.783C152.319 198.783 154.414 196.687 154.414 194.104Z" fill="#DBE7F7"/>
<path d="M186.746 194.104C186.746 191.519 184.651 189.425 182.066 189.425C179.482 189.425 177.386 191.519 177.386 194.104C177.386 196.687 179.482 198.783 182.066 198.783C184.651 198.783 186.746 196.687 186.746 194.104Z" fill="#DBE7F7"/>
<path d="M25.082 164.335C25.082 161.752 22.9871 159.657 20.4022 159.657C17.8172 159.657 15.7223 161.752 15.7223 164.335C15.7223 166.92 17.8172 169.014 20.4022 169.014C22.9871 169.014 25.082 166.92 25.082 164.335Z" fill="#DBE7F7"/>
<path d="M57.4141 164.335C57.4141 161.752 55.3191 159.656 52.7342 159.656C50.1502 159.656 48.0543 161.752 48.0543 164.335C48.0543 166.92 50.1502 169.014 52.7342 169.014C55.3191 169.014 57.4141 166.92 57.4141 164.335Z" fill="#DBE7F7"/>
<path d="M89.7461 164.335C89.7461 161.752 87.6511 159.656 85.0662 159.656C82.4823 159.656 80.3863 161.752 80.3863 164.335C80.3863 166.92 82.4823 169.014 85.0662 169.014C87.6511 169.014 89.7461 166.92 89.7461 164.335Z" fill="#DBE7F7"/>
<path d="M122.074 164.335C122.074 161.752 119.979 159.657 117.394 159.657C114.809 159.657 112.714 161.752 112.714 164.335C112.714 166.92 114.809 169.014 117.394 169.014C119.979 169.014 122.074 166.92 122.074 164.335Z" fill="#DBE7F7"/>
<path d="M154.414 164.335C154.414 161.752 152.319 159.656 149.734 159.656C147.15 159.656 145.054 161.752 145.054 164.335C145.054 166.92 147.15 169.014 149.734 169.014C152.319 169.014 154.414 166.92 154.414 164.335Z" fill="#DBE7F7"/>
<path d="M186.746 164.335C186.746 161.752 184.651 159.656 182.066 159.656C179.482 159.656 177.386 161.752 177.386 164.335C177.386 166.92 179.482 169.014 182.066 169.014C184.651 169.014 186.746 166.92 186.746 164.335Z" fill="#DBE7F7"/>
<path d="M25.082 134.557C25.082 131.973 22.9871 129.879 20.4022 129.879C17.8172 129.879 15.7223 131.973 15.7223 134.557C15.7223 137.14 17.8172 139.236 20.4022 139.236C22.9871 139.236 25.082 137.14 25.082 134.557Z" fill="#DBE7F7"/>
<path d="M57.4141 134.557C57.4141 131.972 55.3191 129.878 52.7342 129.878C50.1502 129.878 48.0543 131.972 48.0543 134.557C48.0543 137.14 50.1502 139.236 52.7342 139.236C55.3191 139.236 57.4141 137.14 57.4141 134.557Z" fill="#DBE7F7"/>
<path d="M89.7461 134.557C89.7461 131.972 87.6511 129.878 85.0662 129.878C82.4823 129.878 80.3863 131.972 80.3863 134.557C80.3863 137.14 82.4823 139.236 85.0662 139.236C87.6511 139.236 89.7461 137.14 89.7461 134.557Z" fill="#DBE7F7"/>
<path d="M122.074 134.557C122.074 131.973 119.979 129.879 117.394 129.879C114.809 129.879 112.714 131.973 112.714 134.557C112.714 137.14 114.809 139.236 117.394 139.236C119.979 139.236 122.074 137.14 122.074 134.557Z" fill="#DBE7F7"/>
<path d="M154.414 134.557C154.414 131.972 152.319 129.878 149.734 129.878C147.15 129.878 145.054 131.972 145.054 134.557C145.054 137.14 147.15 139.236 149.734 139.236C152.319 139.236 154.414 137.14 154.414 134.557Z" fill="#DBE7F7"/>
<path d="M186.746 134.557C186.746 131.972 184.651 129.878 182.066 129.878C179.482 129.878 177.386 131.972 177.386 134.557C177.386 137.14 179.482 139.236 182.066 139.236C184.651 139.236 186.746 137.14 186.746 134.557Z" fill="#DBE7F7"/>
<path d="M25.082 104.788C25.082 102.205 22.9871 100.11 20.4022 100.11C17.8172 100.11 15.7223 102.205 15.7223 104.788C15.7223 107.374 17.8172 109.467 20.4022 109.467C22.9871 109.467 25.082 107.374 25.082 104.788Z" fill="#DBE7F7"/>
<path d="M57.4141 104.789C57.4141 102.205 55.3191 100.11 52.7342 100.11C50.1502 100.11 48.0543 102.205 48.0543 104.789C48.0543 107.373 50.1502 109.468 52.7342 109.468C55.3191 109.468 57.4141 107.373 57.4141 104.789Z" fill="#DBE7F7"/>
<path d="M89.7461 104.789C89.7461 102.205 87.6511 100.11 85.0662 100.11C82.4823 100.11 80.3863 102.205 80.3863 104.789C80.3863 107.373 82.4823 109.468 85.0662 109.468C87.6511 109.468 89.7461 107.373 89.7461 104.789Z" fill="#DBE7F7"/>
<path d="M122.074 104.788C122.074 102.205 119.979 100.11 117.394 100.11C114.809 100.11 112.714 102.205 112.714 104.788C112.714 107.374 114.809 109.467 117.394 109.467C119.979 109.467 122.074 107.374 122.074 104.788Z" fill="#DBE7F7"/>
<path d="M154.414 104.789C154.414 102.205 152.319 100.11 149.734 100.11C147.15 100.11 145.054 102.205 145.054 104.789C145.054 107.373 147.15 109.468 149.734 109.468C152.319 109.468 154.414 107.373 154.414 104.789Z" fill="#DBE7F7"/>
<path d="M186.746 104.789C186.746 102.205 184.651 100.11 182.066 100.11C179.482 100.11 177.386 102.205 177.386 104.789C177.386 107.373 179.482 109.468 182.066 109.468C184.651 109.468 186.746 107.373 186.746 104.789Z" fill="#DBE7F7"/>
<path d="M25.082 75.0197C25.082 72.4363 22.9871 70.3418 20.4022 70.3418C17.8172 70.3418 15.7223 72.4363 15.7223 75.0197C15.7223 77.6031 17.8172 79.6986 20.4022 79.6986C22.9871 79.6986 25.082 77.6031 25.082 75.0197Z" fill="#DBE7F7"/>
<path d="M57.4141 75.0202C57.4141 72.4358 55.3191 70.3413 52.7342 70.3413C50.1502 70.3413 48.0543 72.4358 48.0543 75.0202C48.0543 77.6036 50.1502 79.6991 52.7342 79.6991C55.3191 79.6991 57.4141 77.6036 57.4141 75.0202Z" fill="#DBE7F7"/>
<path d="M89.7461 75.0202C89.7461 72.4358 87.6511 70.3413 85.0662 70.3413C82.4823 70.3413 80.3863 72.4358 80.3863 75.0202C80.3863 77.6036 82.4823 79.6991 85.0662 79.6991C87.6511 79.6991 89.7461 77.6036 89.7461 75.0202Z" fill="#DBE7F7"/>
<path d="M122.074 75.0197C122.074 72.4363 119.979 70.3418 117.394 70.3418C114.809 70.3418 112.714 72.4363 112.714 75.0197C112.714 77.6031 114.809 79.6986 117.394 79.6986C119.979 79.6986 122.074 77.6031 122.074 75.0197Z" fill="#DBE7F7"/>
<path d="M154.414 75.0202C154.414 72.4358 152.319 70.3413 149.734 70.3413C147.15 70.3413 145.054 72.4358 145.054 75.0202C145.054 77.6036 147.15 79.6991 149.734 79.6991C152.319 79.6991 154.414 77.6036 154.414 75.0202Z" fill="#DBE7F7"/>
<path d="M186.746 75.0202C186.746 72.4358 184.651 70.3413 182.066 70.3413C179.482 70.3413 177.386 72.4358 177.386 75.0202C177.386 77.6036 179.482 79.6991 182.066 79.6991C184.651 79.6991 186.746 77.6036 186.746 75.0202Z" fill="#DBE7F7"/>
<path d="M25.082 45.2419C25.082 42.6585 22.9871 40.564 20.4022 40.564C17.8172 40.564 15.7223 42.6585 15.7223 45.2419C15.7223 47.8272 17.8172 49.9208 20.4022 49.9208C22.9871 49.9208 25.082 47.8272 25.082 45.2419Z" fill="#DBE7F7"/>
<path d="M57.4141 45.2419C57.4141 42.6585 55.3191 40.563 52.7342 40.563C50.1502 40.563 48.0543 42.6585 48.0543 45.2419C48.0543 47.8262 50.1502 49.9207 52.7342 49.9207C55.3191 49.9207 57.4141 47.8262 57.4141 45.2419Z" fill="#DBE7F7"/>
<path d="M89.7461 45.2419C89.7461 42.6585 87.6511 40.563 85.0662 40.563C82.4823 40.563 80.3863 42.6585 80.3863 45.2419C80.3863 47.8262 82.4823 49.9207 85.0662 49.9207C87.6511 49.9207 89.7461 47.8262 89.7461 45.2419Z" fill="#DBE7F7"/>
<path d="M122.074 45.2419C122.074 42.6585 119.979 40.564 117.394 40.564C114.809 40.564 112.714 42.6585 112.714 45.2419C112.714 47.8272 114.809 49.9208 117.394 49.9208C119.979 49.9208 122.074 47.8272 122.074 45.2419Z" fill="#DBE7F7"/>
<path d="M154.414 45.2419C154.414 42.6585 152.319 40.563 149.734 40.563C147.15 40.563 145.054 42.6585 145.054 45.2419C145.054 47.8262 147.15 49.9207 149.734 49.9207C152.319 49.9207 154.414 47.8262 154.414 45.2419Z" fill="#DBE7F7"/>
<path d="M186.746 45.2419C186.746 42.6585 184.651 40.563 182.066 40.563C179.482 40.563 177.386 42.6585 177.386 45.2419C177.386 47.8262 179.482 49.9207 182.066 49.9207C184.651 49.9207 186.746 47.8262 186.746 45.2419Z" fill="#DBE7F7"/>
<path d="M25.082 15.4733C25.082 12.8899 22.9871 10.7954 20.4022 10.7954C17.8172 10.7954 15.7223 12.8899 15.7223 15.4733C15.7223 18.0567 17.8172 20.1522 20.4022 20.1522C22.9871 20.1522 25.082 18.0567 25.082 15.4733Z" fill="#DBE7F7"/>
<path d="M57.4141 15.4733C57.4141 12.8889 55.3191 10.7944 52.7342 10.7944C50.1502 10.7944 48.0543 12.8889 48.0543 15.4733C48.0543 18.0567 50.1502 20.1522 52.7342 20.1522C55.3191 20.1522 57.4141 18.0567 57.4141 15.4733Z" fill="#DBE7F7"/>
<path d="M89.7461 15.4733C89.7461 12.8889 87.6511 10.7944 85.0662 10.7944C82.4823 10.7944 80.3863 12.8889 80.3863 15.4733C80.3863 18.0567 82.4823 20.1522 85.0662 20.1522C87.6511 20.1522 89.7461 18.0567 89.7461 15.4733Z" fill="#DBE7F7"/>
<path d="M154.414 15.4733C154.414 12.8889 152.319 10.7944 149.734 10.7944C147.15 10.7944 145.054 12.8889 145.054 15.4733C145.054 18.0567 147.15 20.1522 149.734 20.1522C152.319 20.1522 154.414 18.0567 154.414 15.4733Z" fill="#DBE7F7"/>
<path d="M186.746 15.4733C186.746 12.8889 184.651 10.7944 182.066 10.7944C179.482 10.7944 177.386 12.8889 177.386 15.4733C177.386 18.0567 179.482 20.1522 182.066 20.1522C184.651 20.1522 186.746 18.0567 186.746 15.4733Z" fill="#DBE7F7"/>
</g>
</svg>
